%
M48
M72
T01C0.02362
T02C0.03150
T03C0.03937
T04C0.04000
T05C0.05118
T06C0.07087
%
T01
X101320Y133526
X110482Y134082
X89936Y144355
X91047Y152406
X90214Y168232
X97155Y174063
X106317Y173230
X126030Y158515
T02
X315499Y158554
X388499Y158554
X388499Y210554
X315499Y210554
T03
X19288Y74371
X38973Y74371
X167106Y22451
X186791Y22451
X351019Y132121
X370704Y132121
X390389Y132121
X410074Y132121
X469129Y132121
X488814Y132121
X491216Y186688
X481216Y186688
X471216Y186688
X410625Y233932
X410625Y243932
X410625Y253932
T04
X138710Y99997
X128710Y99997
X118710Y99997
X104232Y74302
X94232Y74302
X84232Y74302
X74232Y74302
T05
X70692Y95671
X23448Y95671
X15574Y119293
X23448Y142915
X70692Y142915
T06
X450625Y188420
X450625Y299444
M30
